<mxfile host="app.diagrams.net" modified="2023-05-11T19:56:37.354Z" agent="Mozilla/5.0 (Windows NT 10.0; Win64; x64) AppleWebKit/537.36 (KHTML, like Gecko) Chrome/113.0.0.0 Safari/537.36" etag="iAHGkK4fwcgqVZgsheu4" version="21.1.7" type="github">
  <diagram name="Page-1" id="Mko-1dQtYvxL38Y6dOsg">
    <mxGraphModel dx="1688" dy="591" grid="0" gridSize="10" guides="1" tooltips="1" connect="1" arrows="1" fold="1" page="0" pageScale="1" pageWidth="850" pageHeight="1100" math="0" shadow="0">
      <root>
        <mxCell id="0" />
        <mxCell id="1" parent="0" />
        <mxCell id="MGnz3St9SAwOkAZfhhM8-1" value="" style="rounded=1;whiteSpace=wrap;html=1;fontSize=16;" vertex="1" parent="1">
          <mxGeometry x="76" y="343" width="120" height="60" as="geometry" />
        </mxCell>
        <mxCell id="MGnz3St9SAwOkAZfhhM8-2" value="" style="rounded=1;whiteSpace=wrap;html=1;fontSize=16;" vertex="1" parent="1">
          <mxGeometry x="228" y="340" width="120" height="60" as="geometry" />
        </mxCell>
        <mxCell id="MGnz3St9SAwOkAZfhhM8-3" value="" style="rounded=1;whiteSpace=wrap;html=1;fontSize=16;" vertex="1" parent="1">
          <mxGeometry x="385" y="343" width="120" height="60" as="geometry" />
        </mxCell>
        <mxCell id="MGnz3St9SAwOkAZfhhM8-4" value="" style="rounded=1;whiteSpace=wrap;html=1;fontSize=16;" vertex="1" parent="1">
          <mxGeometry x="550" y="340" width="120" height="60" as="geometry" />
        </mxCell>
        <mxCell id="MGnz3St9SAwOkAZfhhM8-5" value="" style="rounded=1;whiteSpace=wrap;html=1;fontSize=16;" vertex="1" parent="1">
          <mxGeometry x="505" y="206" width="120" height="60" as="geometry" />
        </mxCell>
        <mxCell id="MGnz3St9SAwOkAZfhhM8-6" value="" style="rounded=1;whiteSpace=wrap;html=1;fontSize=16;" vertex="1" parent="1">
          <mxGeometry x="376" y="94" width="120" height="60" as="geometry" />
        </mxCell>
        <mxCell id="MGnz3St9SAwOkAZfhhM8-7" value="" style="rounded=1;whiteSpace=wrap;html=1;fontSize=16;" vertex="1" parent="1">
          <mxGeometry x="166" y="14" width="120" height="60" as="geometry" />
        </mxCell>
        <mxCell id="MGnz3St9SAwOkAZfhhM8-8" value="" style="rounded=1;whiteSpace=wrap;html=1;fontSize=16;" vertex="1" parent="1">
          <mxGeometry x="20" y="14" width="120" height="60" as="geometry" />
        </mxCell>
        <mxCell id="MGnz3St9SAwOkAZfhhM8-9" value="" style="rounded=1;whiteSpace=wrap;html=1;fontSize=16;" vertex="1" parent="1">
          <mxGeometry x="-88" y="345" width="120" height="60" as="geometry" />
        </mxCell>
        <mxCell id="MGnz3St9SAwOkAZfhhM8-10" value="" style="ellipse;whiteSpace=wrap;html=1;aspect=fixed;fontSize=16;" vertex="1" parent="1">
          <mxGeometry x="-24" y="43" width="22" height="22" as="geometry" />
        </mxCell>
        <mxCell id="MGnz3St9SAwOkAZfhhM8-16" value="" style="ellipse;html=1;shape=endState;fillColor=#000000;strokeColor=#ff0000;fontSize=16;" vertex="1" parent="1">
          <mxGeometry x="-24" y="192" width="26" height="26" as="geometry" />
        </mxCell>
        <mxCell id="MGnz3St9SAwOkAZfhhM8-22" value="" style="endArrow=open;endFill=1;endSize=12;html=1;rounded=0;fontSize=12;curved=1;exitX=1;exitY=0.5;exitDx=0;exitDy=0;entryX=0;entryY=0.5;entryDx=0;entryDy=0;" edge="1" parent="1" source="MGnz3St9SAwOkAZfhhM8-10" target="MGnz3St9SAwOkAZfhhM8-8">
          <mxGeometry width="160" relative="1" as="geometry">
            <mxPoint x="77" y="108" as="sourcePoint" />
            <mxPoint x="237" y="108" as="targetPoint" />
          </mxGeometry>
        </mxCell>
        <mxCell id="MGnz3St9SAwOkAZfhhM8-23" value="" style="endArrow=open;endFill=1;endSize=12;html=1;rounded=0;fontSize=12;curved=1;exitX=1;exitY=0.5;exitDx=0;exitDy=0;entryX=1;entryY=0.5;entryDx=0;entryDy=0;" edge="1" parent="1" target="MGnz3St9SAwOkAZfhhM8-9">
          <mxGeometry width="160" relative="1" as="geometry">
            <mxPoint x="76" y="375" as="sourcePoint" />
            <mxPoint x="98" y="365" as="targetPoint" />
          </mxGeometry>
        </mxCell>
        <mxCell id="MGnz3St9SAwOkAZfhhM8-24" value="" style="endArrow=open;endFill=1;endSize=12;html=1;rounded=0;fontSize=12;curved=1;exitX=1;exitY=0.5;exitDx=0;exitDy=0;" edge="1" parent="1">
          <mxGeometry width="160" relative="1" as="geometry">
            <mxPoint x="284" y="47" as="sourcePoint" />
            <mxPoint x="426" y="93" as="targetPoint" />
          </mxGeometry>
        </mxCell>
        <mxCell id="MGnz3St9SAwOkAZfhhM8-25" value="" style="endArrow=open;endFill=1;endSize=12;html=1;rounded=0;fontSize=12;curved=1;exitX=1;exitY=0.5;exitDx=0;exitDy=0;entryX=0;entryY=0.5;entryDx=0;entryDy=0;" edge="1" parent="1" source="MGnz3St9SAwOkAZfhhM8-8" target="MGnz3St9SAwOkAZfhhM8-7">
          <mxGeometry width="160" relative="1" as="geometry">
            <mxPoint x="28" y="84" as="sourcePoint" />
            <mxPoint x="50" y="74" as="targetPoint" />
          </mxGeometry>
        </mxCell>
        <mxCell id="MGnz3St9SAwOkAZfhhM8-26" value="" style="endArrow=open;endFill=1;endSize=12;html=1;rounded=0;fontSize=12;curved=1;exitX=0;exitY=0.5;exitDx=0;exitDy=0;" edge="1" parent="1" source="MGnz3St9SAwOkAZfhhM8-3" target="MGnz3St9SAwOkAZfhhM8-2">
          <mxGeometry width="160" relative="1" as="geometry">
            <mxPoint x="86" y="385" as="sourcePoint" />
            <mxPoint x="73" y="383" as="targetPoint" />
          </mxGeometry>
        </mxCell>
        <mxCell id="MGnz3St9SAwOkAZfhhM8-27" value="" style="endArrow=open;endFill=1;endSize=12;html=1;rounded=0;fontSize=12;curved=1;entryX=1;entryY=0.5;entryDx=0;entryDy=0;" edge="1" parent="1" target="MGnz3St9SAwOkAZfhhM8-1">
          <mxGeometry width="160" relative="1" as="geometry">
            <mxPoint x="225" y="370" as="sourcePoint" />
            <mxPoint x="83" y="393" as="targetPoint" />
          </mxGeometry>
        </mxCell>
        <mxCell id="MGnz3St9SAwOkAZfhhM8-28" value="" style="endArrow=open;endFill=1;endSize=12;html=1;rounded=0;fontSize=12;curved=1;exitX=0.75;exitY=1;exitDx=0;exitDy=0;" edge="1" parent="1" source="MGnz3St9SAwOkAZfhhM8-6" target="MGnz3St9SAwOkAZfhhM8-29">
          <mxGeometry width="160" relative="1" as="geometry">
            <mxPoint x="106" y="405" as="sourcePoint" />
            <mxPoint x="450" y="185" as="targetPoint" />
          </mxGeometry>
        </mxCell>
        <mxCell id="MGnz3St9SAwOkAZfhhM8-29" value="" style="line;strokeWidth=1;fillColor=none;align=left;verticalAlign=middle;spacingTop=-1;spacingLeft=3;spacingRight=3;rotatable=0;labelPosition=right;points=[];portConstraint=eastwest;strokeColor=inherit;fontSize=16;" vertex="1" parent="1">
          <mxGeometry x="423" y="179" width="40" height="2" as="geometry" />
        </mxCell>
        <mxCell id="MGnz3St9SAwOkAZfhhM8-32" value="" style="endArrow=open;endFill=1;endSize=12;html=1;rounded=0;fontSize=12;curved=1;exitX=0.525;exitY=1.4;exitDx=0;exitDy=0;exitPerimeter=0;" edge="1" parent="1" source="MGnz3St9SAwOkAZfhhM8-29" target="MGnz3St9SAwOkAZfhhM8-5">
          <mxGeometry width="160" relative="1" as="geometry">
            <mxPoint x="476" y="164" as="sourcePoint" />
            <mxPoint x="454" y="189" as="targetPoint" />
          </mxGeometry>
        </mxCell>
        <mxCell id="MGnz3St9SAwOkAZfhhM8-33" value="" style="endArrow=open;endFill=1;endSize=12;html=1;rounded=0;fontSize=12;curved=1;entryX=1;entryY=0.5;entryDx=0;entryDy=0;" edge="1" parent="1" source="MGnz3St9SAwOkAZfhhM8-4" target="MGnz3St9SAwOkAZfhhM8-3">
          <mxGeometry width="160" relative="1" as="geometry">
            <mxPoint x="486" y="174" as="sourcePoint" />
            <mxPoint x="464" y="199" as="targetPoint" />
          </mxGeometry>
        </mxCell>
        <mxCell id="MGnz3St9SAwOkAZfhhM8-34" value="" style="endArrow=open;endFill=1;endSize=12;html=1;rounded=0;fontSize=12;curved=1;exitX=0.417;exitY=1.017;exitDx=0;exitDy=0;exitPerimeter=0;entryX=0.425;entryY=0;entryDx=0;entryDy=0;entryPerimeter=0;" edge="1" parent="1" source="MGnz3St9SAwOkAZfhhM8-5" target="MGnz3St9SAwOkAZfhhM8-4">
          <mxGeometry width="160" relative="1" as="geometry">
            <mxPoint x="496" y="184" as="sourcePoint" />
            <mxPoint x="474" y="209" as="targetPoint" />
          </mxGeometry>
        </mxCell>
        <mxCell id="MGnz3St9SAwOkAZfhhM8-35" value="" style="endArrow=open;endFill=1;endSize=12;html=1;rounded=0;fontSize=12;curved=1;exitX=0.385;exitY=1.4;exitDx=0;exitDy=0;exitPerimeter=0;" edge="1" parent="1" source="MGnz3St9SAwOkAZfhhM8-29" target="MGnz3St9SAwOkAZfhhM8-16">
          <mxGeometry width="160" relative="1" as="geometry">
            <mxPoint x="454" y="192" as="sourcePoint" />
            <mxPoint x="515" y="219" as="targetPoint" />
          </mxGeometry>
        </mxCell>
        <mxCell id="MGnz3St9SAwOkAZfhhM8-36" value="" style="endArrow=open;endFill=1;endSize=12;html=1;rounded=0;fontSize=12;curved=1;exitX=0.5;exitY=0;exitDx=0;exitDy=0;entryX=0.5;entryY=1;entryDx=0;entryDy=0;" edge="1" parent="1" source="MGnz3St9SAwOkAZfhhM8-9" target="MGnz3St9SAwOkAZfhhM8-16">
          <mxGeometry width="160" relative="1" as="geometry">
            <mxPoint x="86" y="385" as="sourcePoint" />
            <mxPoint x="42" y="385" as="targetPoint" />
          </mxGeometry>
        </mxCell>
        <mxCell id="MGnz3St9SAwOkAZfhhM8-37" value="Summerising" style="text;html=1;strokeColor=none;fillColor=none;align=center;verticalAlign=middle;whiteSpace=wrap;rounded=0;fontSize=16;" vertex="1" parent="1">
          <mxGeometry x="255" y="352" width="60" height="30" as="geometry" />
        </mxCell>
        <mxCell id="MGnz3St9SAwOkAZfhhM8-38" value="&amp;nbsp;Condition not valid" style="text;html=1;strokeColor=none;fillColor=none;align=center;verticalAlign=middle;whiteSpace=wrap;rounded=0;fontSize=16;" vertex="1" parent="1">
          <mxGeometry x="103" y="170" width="163" height="30" as="geometry" />
        </mxCell>
        <mxCell id="MGnz3St9SAwOkAZfhhM8-39" value="Correct valid information given" style="text;html=1;strokeColor=none;fillColor=none;align=center;verticalAlign=middle;whiteSpace=wrap;rounded=0;fontSize=16;" vertex="1" parent="1">
          <mxGeometry x="410" y="213" width="86" height="49" as="geometry" />
        </mxCell>
        <mxCell id="MGnz3St9SAwOkAZfhhM8-40" value="View Results" style="text;html=1;strokeColor=none;fillColor=none;align=center;verticalAlign=middle;whiteSpace=wrap;rounded=0;fontSize=16;" vertex="1" parent="1">
          <mxGeometry x="110" y="360" width="60" height="30" as="geometry" />
        </mxCell>
        <mxCell id="MGnz3St9SAwOkAZfhhM8-41" value="Shut Down" style="text;html=1;strokeColor=none;fillColor=none;align=center;verticalAlign=middle;whiteSpace=wrap;rounded=0;fontSize=16;" vertex="1" parent="1">
          <mxGeometry x="-62" y="360" width="60" height="30" as="geometry" />
        </mxCell>
        <mxCell id="MGnz3St9SAwOkAZfhhM8-42" value="Give Conditions" style="text;html=1;strokeColor=none;fillColor=none;align=center;verticalAlign=middle;whiteSpace=wrap;rounded=0;fontSize=16;" vertex="1" parent="1">
          <mxGeometry x="175" y="32" width="106" height="30" as="geometry" />
        </mxCell>
        <mxCell id="MGnz3St9SAwOkAZfhhM8-43" value="Searching for given conditions" style="text;html=1;strokeColor=none;fillColor=none;align=center;verticalAlign=middle;whiteSpace=wrap;rounded=0;fontSize=16;" vertex="1" parent="1">
          <mxGeometry x="413" y="112" width="60" height="30" as="geometry" />
        </mxCell>
        <mxCell id="MGnz3St9SAwOkAZfhhM8-44" value="Searching for given location" style="text;html=1;strokeColor=none;fillColor=none;align=center;verticalAlign=middle;whiteSpace=wrap;rounded=0;fontSize=16;" vertex="1" parent="1">
          <mxGeometry x="585" y="355" width="60" height="30" as="geometry" />
        </mxCell>
        <mxCell id="MGnz3St9SAwOkAZfhhM8-45" value="Search for given day,time" style="text;html=1;strokeColor=none;fillColor=none;align=center;verticalAlign=middle;whiteSpace=wrap;rounded=0;fontSize=16;" vertex="1" parent="1">
          <mxGeometry x="402" y="358" width="86" height="30" as="geometry" />
        </mxCell>
        <mxCell id="MGnz3St9SAwOkAZfhhM8-46" value="Condition successful and valid" style="text;html=1;strokeColor=none;fillColor=none;align=center;verticalAlign=middle;whiteSpace=wrap;rounded=0;fontSize=16;" vertex="1" parent="1">
          <mxGeometry x="538" y="221" width="60" height="30" as="geometry" />
        </mxCell>
        <mxCell id="MGnz3St9SAwOkAZfhhM8-47" value="Customer Login" style="text;html=1;strokeColor=none;fillColor=none;align=center;verticalAlign=middle;whiteSpace=wrap;rounded=0;fontSize=16;" vertex="1" parent="1">
          <mxGeometry x="53" y="32" width="60" height="30" as="geometry" />
        </mxCell>
        <mxCell id="MGnz3St9SAwOkAZfhhM8-51" value="" style="line;strokeWidth=4;html=1;perimeter=backbonePerimeter;points=[];outlineConnect=0;fontSize=16;" vertex="1" parent="1">
          <mxGeometry x="381" y="175" width="102" height="10" as="geometry" />
        </mxCell>
      </root>
    </mxGraphModel>
  </diagram>
</mxfile>
